<?xml version="1.0" encoding="utf-8"?>
<!-- Generator: Adobe Illustrator 16.0.0, SVG Export Plug-In . SVG Version: 6.00 Build 0)  -->
<!DOCTYPE svg PUBLIC "-//W3C//DTD SVG 1.1//EN" "http://www.w3.org/Graphics/SVG/1.1/DTD/svg11.dtd">
<svg version="1.1" id="Layer_1" xmlns="http://www.w3.org/2000/svg" xmlns:xlink="http://www.w3.org/1999/xlink" x="0px" y="0px"
	 width="40px" height="40px" viewBox="0 0 40 40" enable-background="new 0 0 40 40" xml:space="preserve">
<g>
	<path d="M39.737,13.08C40.832,9.723,38.407,7,34.321,7c-0.042,0-0.083,0.003-0.125,0.003h-8.166l-5.028,15.419
		c-0.41-1.933-1.92-3.437-4.165-4.106c2.522-1.059,4.619-3.007,5.345-5.236C23.278,9.723,20.853,7,16.768,7
		c-0.042,0-0.084,0.003-0.125,0.003H8.477l-6.01,18.431c-0.003,0.01-0.008,0.021-0.012,0.032c-0.007,0.024-0.014,0.046-0.021,0.067
		L0,33h9.166c3.747,0,7.568-1.847,9.853-4.491L17.554,33h9.166c5.064,0,10.268-3.371,11.625-7.534
		c1.086-3.331-0.625-6.158-3.952-7.15C36.914,17.257,39.01,15.309,39.737,13.08z"/>
</g>
</svg>
