<?xml version="1.0" encoding="utf-8"?>
<!-- Generator: Adobe Illustrator 16.0.0, SVG Export Plug-In . SVG Version: 6.00 Build 0)  -->
<!DOCTYPE svg PUBLIC "-//W3C//DTD SVG 1.1//EN" "http://www.w3.org/Graphics/SVG/1.1/DTD/svg11.dtd">
<svg version="1.1" id="Layer_1" xmlns="http://www.w3.org/2000/svg" xmlns:xlink="http://www.w3.org/1999/xlink" x="0px" y="0px"
	 width="52px" height="52px" viewBox="-3 -3 52 52" enable-background="new -3 -3 52 52" xml:space="preserve">
<g>
	<path d="M48.658,13.953C50.081,9.563,46.927,6,41.618,6c-0.056,0-0.107,0.006-0.164,0.006H30.838l-6.533,20.16
		c-0.537-2.523-2.498-4.492-5.417-5.366c3.278-1.385,6.004-3.933,6.952-6.847C27.262,9.563,24.111,6,18.799,6
		c-0.059,0-0.112,0.006-0.165,0.006H8.02L0.206,30.105c-0.004,0.015-0.009,0.026-0.014,0.04c-0.011,0.034-0.019,0.062-0.026,0.089
		L-3,40H8.914c4.873,0,9.842-2.417,12.812-5.872L19.822,40h11.915c6.584,0,13.35-4.411,15.114-9.854
		c1.413-4.355-0.815-8.048-5.141-9.347C44.988,19.414,47.714,16.866,48.658,13.953z"/>
</g>
</svg>
