<?xml version="1.0" encoding="utf-8"?>
<!-- Generator: Adobe Illustrator 16.0.0, SVG Export Plug-In . SVG Version: 6.00 Build 0)  -->
<!DOCTYPE svg PUBLIC "-//W3C//DTD SVG 1.1//EN" "http://www.w3.org/Graphics/SVG/1.1/DTD/svg11.dtd">
<svg version="1.1" id="Layer_1" xmlns="http://www.w3.org/2000/svg" xmlns:xlink="http://www.w3.org/1999/xlink" x="0px" y="0px"
	 width="50px" height="50px" viewBox="-2 -2 50 50" enable-background="new -2 -2 50 50" xml:space="preserve">
<g>
	<path d="M47.672,14.219C49.04,9.958,46.007,6.5,40.901,6.5c-0.053,0-0.103,0.006-0.156,0.006H30.537l-6.283,19.567
		c-0.516-2.45-2.401-4.36-5.208-5.208c3.152-1.344,5.774-3.817,6.684-6.646C27.098,9.958,24.068,6.5,18.96,6.5
		c-0.056,0-0.107,0.006-0.158,0.006H8.596L1.083,29.897c-0.003,0.014-0.008,0.024-0.014,0.038c-0.01,0.032-0.018,0.061-0.025,0.086
		L-2,39.5H9.456c4.685,0,9.463-2.346,12.319-5.699L19.944,39.5H31.4c6.33,0,12.836-4.281,14.532-9.564
		c1.359-4.227-0.783-7.811-4.941-9.072C44.143,19.52,46.763,17.046,47.672,14.219z"/>
</g>
</svg>
